<?xml version="1.0" encoding="UTF-8" standalone="no" ?>
<!DOCTYPE svg PUBLIC "-//W3C//DTD SVG 1.1//EN" "http://www.w3.org/Graphics/SVG/1.1/DTD/svg11.dtd">
<svg xmlns="http://www.w3.org/2000/svg" xmlns:xlink="http://www.w3.org/1999/xlink" version="1.1" width="1080" height="1080" viewBox="0 0 1080 1080" xml:space="preserve">
<desc>Created with Fabric.js 5.2.4</desc>
<defs>
</defs>
<rect x="0" y="0" width="100%" height="100%" fill="transparent"></rect>
<g transform="matrix(1 0 0 1 540 540)" id="8e38d980-502f-420a-abb1-4b844b891757"  >
<rect style="stroke: none; stroke-width: 1; stroke-dasharray: none; stroke-linecap: butt; stroke-dashoffset: 0; stroke-linejoin: miter; stroke-miterlimit: 4; fill: rgb(255,255,255); fill-rule: nonzero; opacity: 1; visibility: hidden;" vector-effect="non-scaling-stroke"  x="-540" y="-540" rx="0" ry="0" width="1080" height="1080" />
</g>
<g transform="matrix(Infinity NaN NaN Infinity 0 0)" id="6efcf76c-0860-4551-b486-1927bd49bcdc"  >
</g>
<g transform="matrix(7.86 0 0 7.86 540 496.55)"  >
<g style="" vector-effect="non-scaling-stroke"   >
		<g transform="matrix(1 0 0 1 38.1 -3.01)"  >
<path style="stroke: none; stroke-width: 1; stroke-dasharray: none; stroke-linecap: butt; stroke-dashoffset: 0; stroke-linejoin: miter; stroke-miterlimit: 4; fill: rgb(170,156,49); fill-rule: nonzero; opacity: 1;" vector-effect="non-scaling-stroke"  transform=" translate(-494.95, -439.14)" d="M 501.305 398.499 L 522.026 479.78 L 467.872 472.159 L 501.305 398.499" stroke-linecap="round" />
</g>
		<g transform="matrix(1 0 0 1 38.1 -3.01)"  >
<path style="stroke: rgb(51,51,51); stroke-width: 4; stroke-dasharray: none; stroke-linecap: round; stroke-dashoffset: 0; stroke-linejoin: round; stroke-miterlimit: 4; fill: rgb(0,0,0); fill-opacity: 0; fill-rule: nonzero; opacity: 1;" vector-effect="non-scaling-stroke"  transform=" translate(-494.95, -439.14)" d="M 501.305 398.499 L 522.026 479.78 L 467.872 472.159 L 501.305 398.499 z" stroke-linecap="round" />
</g>
		<g transform="matrix(1 0 0 1 -10.36 0)"  >
<path style="stroke: none; stroke-width: 1; stroke-dasharray: none; stroke-linecap: butt; stroke-dashoffset: 0; stroke-linejoin: miter; stroke-miterlimit: 4; fill: rgb(234,220,113); fill-rule: nonzero; opacity: 1;" vector-effect="non-scaling-stroke"  transform=" translate(-446.49, -442.15)" d="M 472.892 501.838 L 391.667 485.785 L 420.073 382.454 L 501.305 398.499 L 472.892 501.838" stroke-linecap="round" />
</g>
		<g transform="matrix(1 0 0 1 -10.36 0)"  >
<path style="stroke: rgb(74,44,65); stroke-width: 4; stroke-dasharray: none; stroke-linecap: round; stroke-dashoffset: 0; stroke-linejoin: round; stroke-miterlimit: 4; fill: rgb(0,0,0); fill-opacity: 0; fill-rule: nonzero; opacity: 1;" vector-effect="non-scaling-stroke"  transform=" translate(-446.49, -442.15)" d="M 472.892 501.838 L 391.667 485.785 L 420.073 382.454 L 501.305 398.499 L 472.892 501.838 z" stroke-linecap="round" />
</g>
</g>
</g>
</svg>